<svg width="25" height="25" viewBox="0 0 25 25" fill="none" xmlns="http://www.w3.org/2000/svg">
<rect x="0.00158691" y="0.998535" width="24" height="24" fill="#1A3063"/>
<path fill-rule="evenodd" clip-rule="evenodd" d="M6.60217 12.8972C6.60217 10.5516 6.60217 9.37885 7.22211 8.57093C7.38171 8.36294 7.56789 8.17676 7.77589 8.01716C8.58381 7.39722 9.7566 7.39722 12.1022 7.39722C14.4477 7.39722 15.6205 7.39722 16.4285 8.01716C16.6365 8.17676 16.8226 8.36294 16.9822 8.57093C17.6022 9.37885 17.6022 10.5516 17.6022 12.8972C17.6022 15.2428 17.6022 16.4156 16.9822 17.2235C16.8226 17.4315 16.6365 17.6177 16.4285 17.7773C15.6205 18.3972 14.4477 18.3972 12.1022 18.3972C9.7566 18.3972 8.58381 18.3972 7.77589 17.7773C7.56789 17.6177 7.38171 17.4315 7.22211 17.2235C6.60217 16.4156 6.60217 15.2428 6.60217 12.8972ZM12.0977 16.1982C10.2752 16.1982 8.79775 14.7208 8.79775 12.8982C8.79775 11.0757 10.2752 9.59821 12.0977 9.59821C13.9203 9.59821 15.3977 11.0757 15.3977 12.8982C15.3977 14.7208 13.9203 16.1982 12.0977 16.1982ZM9.89775 12.8982C9.89775 14.1132 10.8827 15.0982 12.0977 15.0982C13.3128 15.0982 14.2977 14.1132 14.2977 12.8982C14.2977 11.6832 13.3128 10.6982 12.0977 10.6982C10.8827 10.6982 9.89775 11.6832 9.89775 12.8982ZM15.4015 9.0482C15.0977 9.0482 14.8515 9.29445 14.8515 9.5982C14.8515 9.90196 15.0977 10.1482 15.4015 10.1482C15.7052 10.1482 15.9515 9.90196 15.9515 9.5982C15.9515 9.29445 15.7052 9.0482 15.4015 9.0482Z" fill="white"/>
</svg>
