<svg width="25" height="25" viewBox="0 0 25 25" fill="none" xmlns="http://www.w3.org/2000/svg">
<rect x="0.998291" y="0.998535" width="24" height="24" fill="#1A3063"/>
<path d="M17.5704 10.3649C17.5753 10.4662 17.5766 10.5675 17.5766 10.6663C17.5766 13.7546 15.2283 17.3135 10.9319 17.3135C9.66242 17.3156 8.4193 16.951 7.35205 16.2635C7.53364 16.2857 7.72017 16.2943 7.90917 16.2943C9.00364 16.2943 10.0104 15.9225 10.8096 15.295C10.3226 15.2854 9.85065 15.1241 9.4596 14.8336C9.06856 14.5431 8.77789 14.1378 8.62811 13.6743C8.97789 13.7408 9.33822 13.7269 9.68182 13.6335C9.15317 13.5266 8.67777 13.2402 8.33622 12.8228C7.99467 12.4053 7.80801 11.8826 7.80787 11.3433V11.3149C8.12287 11.4891 8.48358 11.5953 8.86652 11.6076C8.37092 11.2777 8.02008 10.7709 7.88575 10.1909C7.75143 9.6109 7.84376 9.00148 8.14388 8.48729C8.73058 9.2087 9.46226 9.79886 10.2915 10.2196C11.1208 10.6402 12.0292 10.8821 12.9578 10.9295C12.8398 10.4283 12.8906 9.9022 13.1024 9.43291C13.3142 8.96362 13.6751 8.57745 14.129 8.33444C14.5829 8.09142 15.1044 8.00518 15.6123 8.08912C16.1203 8.17305 16.5863 8.42246 16.9379 8.79858C17.4607 8.69516 17.962 8.50341 18.4203 8.23158C18.2461 8.7728 17.8813 9.23238 17.3938 9.52493C17.8568 9.46916 18.309 9.34468 18.7353 9.15558C18.4221 9.62486 18.0276 10.0344 17.5704 10.3649Z" fill="white"/>
</svg>
